<?xml version="1.0" standalone="no"?>
<!DOCTYPE svg PUBLIC "-//W3C//DTD SVG 20010904//EN"
 "http://www.w3.org/TR/2001/REC-SVG-20010904/DTD/svg10.dtd">
<svg version="1.0" xmlns="http://www.w3.org/2000/svg"
 width="300.000000pt" height="300.000000pt" viewBox="0 0 300.000000 300.000000"
 preserveAspectRatio="xMidYMid meet">
<metadata>
Created by potrace 1.10, written by Peter Selinger 2001-2011
</metadata>
<g transform="translate(0.000000,300.000000) scale(0.100000,-0.100000)"
fill="#000000" stroke="none">
<path d="M265 2907 c-27 -23 -27 -25 -82 -487 -29 -256 -54 -503 -55 -550 -2
-204 97 -386 272 -499 35 -23 81 -46 102 -53 l38 -11 0 -443 0 -443 -42 -19
c-65 -29 -104 -67 -137 -134 -41 -82 -43 -147 -5 -177 26 -20 38 -21 359 -21
321 0 333 1 359 21 21 16 26 29 26 63 0 101 -61 195 -155 242 l-55 26 0 444
c0 349 3 444 13 444 28 0 136 60 193 108 113 93 194 251 208 402 10 97 -105
1065 -128 1088 -15 15 -61 17 -450 20 l-434 3 -27 -24z m858 -26 c14 -6 28
-18 31 -28 3 -10 28 -215 56 -455 52 -453 60 -600 36 -679 -45 -149 -155 -279
-290 -344 -53 -26 -81 -45 -91 -65 -13 -24 -15 -97 -15 -453 0 -416 0 -425 21
-451 11 -15 38 -35 59 -46 95 -48 169 -208 111 -240 -12 -6 -135 -10 -330 -10
-339 0 -341 0 -341 59 0 48 51 133 100 168 25 17 60 45 78 61 l32 30 0 429 c0
324 -3 434 -13 453 -8 15 -42 40 -90 65 -142 73 -234 178 -284 324 -29 85 -30
195 -3 430 12 97 34 293 51 436 35 310 34 304 62 315 30 12 789 13 820 1z"/>
<path d="M352 2795 c-22 -27 -23 -37 -48 -253 -19 -168 -15 -195 32 -212 40
-15 733 -13 763 3 46 23 47 33 23 244 -19 170 -25 200 -44 220 l-21 23 -343 0
-343 0 -19 -25z m708 -22 c0 -15 40 -348 45 -378 l5 -30 -393 2 c-368 3 -392
4 -390 20 9 61 43 367 43 379 0 12 54 14 345 14 190 0 345 -3 345 -7z"/>
<path d="M290 2235 c-20 -22 -26 -46 -44 -200 -24 -207 -18 -267 38 -381 92
-186 304 -299 500 -266 135 22 256 99 329 209 85 128 98 208 73 435 -18 162
-29 204 -56 218 -11 6 -177 10 -418 10 l-399 0 -23 -25z m853 -177 c22 -204
22 -241 -2 -317 -26 -82 -60 -138 -120 -194 -258 -241 -679 -102 -744 245 -8
47 -7 94 7 231 10 95 20 178 22 185 3 9 94 12 411 12 l408 0 18 -162z"/>
<path d="M947 1952 c-10 -10 -17 -35 -17 -56 0 -126 -89 -235 -193 -236 -67 0
-108 -49 -87 -104 15 -41 50 -51 121 -38 176 32 289 159 297 333 4 68 1 80
-17 98 -27 27 -82 28 -104 3z m73 -37 c9 -10 11 -36 8 -79 -9 -113 -75 -203
-183 -252 -56 -26 -129 -34 -147 -16 -17 17 -2 41 29 47 78 16 109 30 148 67
51 46 81 103 91 173 9 70 28 91 54 60z"/>
<path d="M666 1289 l-26 -30 0 -455 c0 -251 -2 -460 -5 -464 -3 -5 -30 -16
-59 -24 -36 -11 -63 -26 -80 -47 -31 -36 -32 -50 -8 -72 16 -15 47 -17 229
-17 195 0 211 1 227 19 35 38 -8 91 -95 119 l-54 17 -5 465 c-5 478 -7 499
-46 514 -31 12 -53 5 -78 -25z m84 -487 c0 -544 -6 -506 85 -523 43 -8 112
-46 102 -55 -7 -7 -437 -10 -437 -3 0 17 53 50 93 58 93 17 87 -21 87 523 l0
478 35 0 35 0 0 -478z"/>
<path d="M2119 1773 c-63 -33 -108 -90 -116 -151 -5 -34 -11 -43 -37 -54 -17
-7 -50 -31 -72 -54 -66 -66 -87 -156 -58 -251 l6 -23 -129 0 c-118 0 -133 -2
-180 -25 -54 -27 -97 -78 -113 -136 -6 -19 -10 -154 -10 -301 l0 -268 -49 0
c-32 0 -56 -6 -71 -18 -22 -18 -23 -25 -21 -136 1 -64 6 -129 12 -144 17 -45
58 -91 102 -115 l42 -22 623 -3 c403 -2 636 1 661 8 57 15 102 50 136 104 29
48 30 53 30 169 0 113 -1 120 -24 138 -16 13 -39 19 -72 19 l-48 0 -3 288 -3
289 -30 48 c-22 36 -45 57 -84 77 -50 26 -60 28 -182 28 l-129 0 7 28 c15 52
8 145 -15 188 -24 47 -74 94 -120 113 -37 16 -38 20 -12 53 12 16 34 28 59 32
69 11 93 75 46 121 -32 33 -77 32 -146 -2z m121 -49 c0 -8 -20 -23 -43 -33
-48 -21 -87 -63 -87 -93 0 -19 25 -46 95 -102 56 -45 69 -78 70 -178 0 -57 4
-91 13 -100 9 -9 56 -15 146 -18 124 -5 135 -7 174 -32 75 -50 76 -57 82 -374
5 -259 7 -284 24 -303 13 -14 31 -21 56 -21 21 0 43 -6 49 -14 18 -21 15 -209
-3 -244 -20 -39 -59 -72 -103 -87 -50 -18 -1181 -22 -1262 -4 -56 12 -103 45
-126 90 -19 36 -21 229 -3 247 7 7 28 12 48 12 25 0 43 7 58 23 20 21 21 33
24 302 3 272 4 281 26 317 42 68 79 82 228 88 164 6 169 9 160 97 -12 112 16
165 133 251 18 14 35 38 41 60 13 50 44 97 75 118 54 35 125 34 125 -2z"/>
<path d="M2035 1479 c-40 -12 -58 -27 -84 -69 -28 -47 -27 -97 3 -141 26 -38
78 -69 116 -69 39 0 91 32 117 72 67 101 -36 242 -152 207z m108 -69 c67 -75
-1 -190 -99 -166 -68 17 -96 105 -53 160 43 54 105 57 152 6z"/>
<path d="M1595 1126 c-55 -24 -69 -50 -73 -132 -3 -58 0 -80 13 -100 18 -28
15 -28 146 -3 84 16 150 3 246 -49 60 -32 77 -36 139 -37 63 0 80 5 161 43
110 52 172 61 262 38 34 -9 71 -16 81 -16 33 0 50 39 50 116 0 81 -19 116 -76
140 -48 20 -904 20 -949 0z m964 -51 c24 -25 36 -179 13 -170 -69 26 -133 37
-198 33 -62 -4 -87 -12 -166 -52 -123 -61 -152 -61 -276 1 -81 41 -102 47
-170 51 -58 3 -92 -1 -139 -16 l-63 -20 0 77 c0 79 8 98 50 114 8 3 221 5 472
4 443 -2 458 -3 477 -22z"/>
<path d="M1695 834 c-11 -3 -48 -14 -82 -25 -86 -28 -93 -42 -93 -182 0 -174
-58 -157 551 -157 l506 0 21 23 c20 21 22 34 22 138 0 140 -5 149 -97 180
-108 36 -161 32 -272 -21 -89 -43 -99 -45 -181 -45 -81 0 -92 3 -176 42 -85
41 -156 57 -199 47z m185 -85 c137 -72 245 -71 385 2 95 50 144 54 250 20 l70
-21 0 -120 0 -120 -513 0 -513 0 3 122 3 122 30 8 c17 5 53 15 80 23 67 19
115 10 205 -36z"/>
<path d="M1425 401 c-43 -18 -58 -47 -53 -103 5 -44 11 -57 42 -85 l36 -33
620 0 620 0 36 33 c30 28 37 42 41 83 5 43 2 54 -20 80 l-25 29 -639 2 c-351
1 -647 -2 -658 -6z m1305 -85 c0 -37 -5 -56 -22 -73 l-21 -23 -618 0 -618 0
-20 26 c-14 18 -21 41 -21 73 l0 46 660 0 660 0 0 -49z"/>
</g>
</svg>
