<?xml version="1.0" encoding="utf-8"?>
<!-- Generator: Adobe Illustrator 23.0.3, SVG Export Plug-In . SVG Version: 6.00 Build 0)  -->
<svg version="1.1" id="Capa_1" xmlns="http://www.w3.org/2000/svg" xmlns:xlink="http://www.w3.org/1999/xlink" x="0px" y="0px"
	 viewBox="0 0 1200 1200" enable-background="new 0 0 1200 1200" xml:space="preserve">
<path fill="#232323" d="M472.851,113.831c-0.057,2.012,0.074,4.055,0.454,6.11l83.83,453.639L431.561,318.875l22.773-48.801
	c1.627-3.487,1.801-7.477,0.483-11.092c-1.319-3.614-4.02-6.557-7.511-8.177l-40.569-18.835l24.482-97.924
	C450.422,124.721,465.967,117.173,472.851,113.831z M725.93,119.94l-83.829,453.64l125.573-254.705l-22.773-48.801
	c-1.627-3.487-1.801-7.477-0.482-11.092c1.319-3.615,4.02-6.557,7.511-8.177l40.569-18.835l-24.482-97.924
	c-19.203-9.324-34.748-16.871-41.632-20.214C726.442,115.843,726.31,117.886,725.93,119.94z M555.282,1097.189V753.053
	c0-0.133,0.036-0.257,0.039-0.39c0.014-0.522,0.086-1.04,0.158-1.563c0.061-0.449,0.11-0.899,0.211-1.334
	c0.1-0.427,0.252-0.843,0.393-1.265c0.169-0.509,0.336-1.013,0.559-1.495c0.055-0.118,0.077-0.243,0.135-0.36l26.687-54.13
	L402.496,325.455c-1.944-3.942-1.994-8.552-0.134-12.534l19.574-41.945l-38.259-17.763c-6.302-2.926-9.641-9.915-7.955-16.658
	l21.501-86.003c-48.741,23.666-101.86,49.458-101.86,49.458c-0.001,0.001-0.002,0.001-0.004,0.001c-0.001,0-0.003-0.001-0.004-0.001
	s-0.002,0.001-0.004,0.004c-0.274,0.626-152.056,347.085-243.924,607.472c-4.445,12.6,1.833,26.457,14.218,31.469l92.624,37.485
	c2.713,1.098,5.515,1.617,8.271,1.617c8.749,0,17.032-5.238,20.489-13.859l138.849-346.237
	c26.032,141.735,15.76,455.548,12.65,534.735c-0.424,10.804,7.032,20.297,17.63,22.436
	C388.357,1081.631,460.62,1094.043,555.282,1097.189z M903.885,200.014c-0.001-0.004-0.003-0.004-0.004-0.004
	c-0.001,0-0.002,0.001-0.004,0.001c-0.001,0-0.002,0-0.004-0.001c0,0-53.12-25.792-101.86-49.458l21.501,86.003
	c1.685,6.743-1.653,13.731-7.955,16.658L777.3,270.975l19.574,41.945c1.859,3.982,1.81,8.592-0.134,12.534L599.293,725.941
	c4.087-1.196,8.396-1.868,12.865-1.868c25.32,0,45.92,20.6,45.92,45.92s-20.6,45.92-45.92,45.92
	c-10.497,0-20.153-3.579-27.896-9.529v78.606c7.743-5.95,17.399-9.529,27.896-9.529c25.32,0,45.92,20.6,45.92,45.92
	s-20.6,45.92-45.92,45.92c-10.497,0-20.153-3.579-27.896-9.529v140.061c5.072,0.059,10.178,0.099,15.356,0.099
	c115.96-0.001,203.529-15.238,239.612-22.738c10.45-2.173,17.817-11.515,17.507-22.184c-2.279-78.667-9.446-393.126,16.621-535.049
	l138.849,346.237c3.457,8.62,11.74,13.859,20.489,13.859c2.757,0,5.558-0.519,8.271-1.617l95.228-38.539
	c10.928-4.423,16.465-16.639,12.551-27.759C1056.977,549.462,904.16,200.642,903.885,200.014z M599.618,102.066
	c-23.473,0.158-49.152,2.308-75.96,7.633l75.96,39.458l75.96-39.458C648.77,104.374,623.091,102.224,599.618,102.066z
	 M548.872,369.392l33.708-110.119l-29.304-19.225l-23.396,26.572L548.872,369.392z M599.618,235.791l26.998-17.712l-26.998-30.665
	l-26.998,30.665L599.618,235.791z M638.954,431.132l-39.336-128.505l-39.336,128.505l39.336,212.866L638.954,431.132z
	 M523.183,230.373l53.324-60.564l-71.366-37.072L523.183,230.373z M676.053,230.373l18.043-97.637l-71.366,37.072L676.053,230.373z
	 M650.363,369.392l18.992-102.772l-23.396-26.572l-29.304,19.225L650.363,369.392z M629.099,769.993
	c0-9.356-7.584-16.941-16.941-16.941c-9.356,0-16.941,7.584-16.941,16.941c0,9.356,7.585,16.941,16.941,16.941
	C621.514,786.933,629.099,779.349,629.099,769.993z M629.099,921.381c0-9.356-7.584-16.941-16.941-16.941
	c-9.356,0-16.941,7.585-16.941,16.941c0,9.356,7.585,16.941,16.941,16.941C621.514,938.322,629.099,930.738,629.099,921.381z"/>
</svg>
