<?xml version="1.0" standalone="no"?>
<!DOCTYPE svg PUBLIC "-//W3C//DTD SVG 20010904//EN"
 "http://www.w3.org/TR/2001/REC-SVG-20010904/DTD/svg10.dtd">
<svg version="1.0" xmlns="http://www.w3.org/2000/svg"
 width="300.000000pt" height="300.000000pt" viewBox="0 0 300.000000 300.000000"
 preserveAspectRatio="xMidYMid meet">
<metadata>
Created by potrace 1.10, written by Peter Selinger 2001-2011
</metadata>
<g transform="translate(0.000000,300.000000) scale(0.100000,-0.100000)"
fill="#000000" stroke="none">
<path d="M1356 2595 c-122 -47 -196 -152 -196 -280 0 -256 300 -389 490 -218
121 108 129 305 17 421 -74 78 -217 113 -311 77z m207 -98 c137 -80 137 -283
1 -363 -147 -86 -324 13 -324 181 0 28 9 68 19 91 21 45 81 100 126 114 52 16
128 6 178 -23z"/>
<path d="M2566 2117 c-25 -18 -20 -174 7 -191 12 -8 22 -8 35 0 25 16 30 164
7 188 -20 19 -26 20 -49 3z"/>
<path d="M2312 1998 c-23 -23 -11 -47 49 -97 65 -55 92 -62 109 -32 16 31 14
35 -51 89 -62 53 -85 62 -107 40z"/>
<path d="M2757 1957 c-58 -52 -67 -73 -45 -95 20 -20 41 -14 97 33 66 53 75
68 61 95 -18 33 -51 23 -113 -33z"/>
<path d="M1312 1936 c-96 -24 -199 -83 -272 -155 -103 -101 -162 -222 -176
-356 l-7 -65 -391 0 c-292 0 -395 -3 -404 -12 -8 -8 -12 -52 -12 -134 0 -98 3
-124 16 -135 11 -9 44 -12 110 -10 l94 2 0 -328 c0 -243 3 -332 12 -341 9 -9
293 -12 1218 -12 925 0 1209 3 1218 12 9 9 12 98 12 341 l0 328 94 -2 c66 -2
99 1 110 10 13 11 16 37 16 135 0 82 -4 126 -12 134 -7 7 -39 12 -75 12 l-63
0 0 93 c0 50 -5 109 -11 130 -14 50 -64 106 -117 129 -34 15 -41 22 -33 36 17
33 -13 72 -56 72 -28 0 -56 -40 -49 -71 5 -21 -1 -27 -45 -48 -33 -15 -59 -37
-77 -64 -25 -37 -27 -50 -30 -159 l-4 -118 -167 0 -168 0 -6 73 c-16 210 -177
411 -394 488 -74 27 -253 35 -331 15z m263 -81 c212 -55 363 -231 388 -452 l5
-43 -514 0 -514 0 0 25 c0 102 64 245 149 331 130 131 313 183 486 139z m1025
-114 c0 -11 5 -23 10 -26 20 -12 9 -25 -21 -25 -26 0 -30 3 -24 18 4 9 10 25
12 35 7 23 23 22 23 -2z m58 -111 c35 -21 62 -72 62 -115 l0 -25 -130 0 -130
0 0 33 c0 44 19 77 59 104 42 29 95 30 139 3z m-198 -181 c0 -5 -9 -13 -20
-19 -18 -10 -20 -8 -20 26 0 36 0 37 20 19 11 -10 20 -22 20 -26z m300 7 c0
-31 -14 -40 -30 -21 -15 18 -6 45 15 45 9 0 15 -9 15 -24z m-40 -68 l0 -28
-130 0 -130 0 0 28 0 27 130 0 130 0 0 -27z m-1802 -40 c23 -23 14 -27 -42
-19 -9 1 12 31 23 31 4 0 12 -5 19 -12z m1107 -8 c0 -8 -10 -16 -22 -18 -22
-3 -32 16 -16 32 12 11 38 2 38 -14z m414 6 c9 -10 8 -15 -4 -20 -8 -3 -22 -3
-30 0 -12 5 -13 10 -4 20 6 8 15 14 19 14 4 0 13 -6 19 -14z m340 1 c14 -17 4
-27 -26 -27 -25 0 -26 1 -17 24 7 20 28 21 43 3z m89 -132 l-3 -65 -1365 0
-1365 0 -3 65 -3 65 1371 0 1371 0 -3 -65z m-2538 -130 c-7 -8 -18 -15 -25
-15 -7 0 -15 7 -19 15 -4 11 2 15 26 15 26 0 29 -2 18 -15z m2384 0 c-4 -8
-12 -15 -19 -15 -7 0 -18 7 -25 15 -11 13 -8 15 18 15 24 0 30 -4 26 -15z
m-64 -315 l0 -300 -1150 0 -1150 0 0 300 0 300 1150 0 1150 0 0 -300z"/>
<path d="M680 919 c-116 -47 -128 -208 -19 -264 44 -23 1635 -23 1678 0 47 24
75 71 75 127 0 52 -19 86 -68 122 -27 21 -37 21 -834 23 -521 1 -816 -2 -832
-8z m1615 -79 c46 -17 53 -85 11 -112 -6 -4 -369 -8 -806 -8 -437 0 -800 4
-806 8 -40 26 -35 94 8 112 32 12 1559 13 1593 0z"/>
</g>
</svg>
